# WaveFront *.obj file (generated by Cinema 4D)

mtllib ./sword1.mtl

v -135.371063 -5.719986 82.733836
v -134.668042 -4.635066 61.091751
v -131.888946 -3.658959 41.785675
v -126.995255 -2.712306 23.231590
v -119.972281 -1.799634 5.521142
v -110.830561 -0.924713 -11.271079
v -99.319907 -0.103102 -26.814656
v -85.944900 0.670100 -41.246491
v -70.955391 1.386589 -54.419753
v -54.921045 2.019140 -65.833913
v -38.020355 2.555650 -75.260679
v -20.181646 2.970578 -82.183742
v -1.699531 3.277060 -86.888543
v 17.349024 3.474877 -89.376589
v 36.875497 3.565002 -89.674186
v 56.669766 3.550094 -87.850682
v 76.112531 3.418060 -83.711976
v 94.668223 3.185174 -77.624800
v 112.115949 2.850545 -69.588334
v 128.362228 2.413900 -59.604330
v 143.335685 1.876122 -47.695973
v 156.669774 1.226483 -33.676927
v 168.581753 0.489188 -18.014527
v 178.973012 -0.322464 -0.982306
v 187.448898 -1.177624 16.772366
v 193.814993 -2.066251 35.033742
v 197.553515 -2.989347 53.781933
v 198.989536 -3.933731 72.778412
v 198.141505 -4.895492 91.946390
v 195.050276 -5.870472 111.205879
v 189.287250 -6.935976 132.069746
v -156.366951 -5.780334 82.322704
v -155.595979 -4.628791 59.353529
v -152.482070 -3.532700 37.673830
v -146.936209 -2.460121 16.651715
v -138.935648 -1.421975 -3.492629
v -128.534491 -0.428687 -22.554910
v -115.562440 0.499237 -40.111923
v -100.619625 1.363911 -56.252193
v -83.992071 2.158700 -70.865081
v -66.061852 2.865350 -83.614980
v -46.975885 3.469868 -94.233361
v -26.722653 3.942054 -102.115412
v -5.699048 4.291283 -107.479202
v 15.883805 4.515482 -110.299549
v 37.810429 4.616349 -110.627004
v 59.825600 4.599107 -108.585684
v 81.453286 4.452896 -103.995108
v 102.291267 4.191728 -97.166449
v 122.059363 3.812536 -88.060018
v 140.536227 3.315268 -76.691790
v 157.529953 2.703614 -63.150357
v 172.596307 1.971279 -47.344071
v 185.921363 1.147470 -29.842654
v 197.448310 0.247122 -10.949199
v 206.912672 -0.709067 8.902046
v 214.075046 -1.712450 29.519663
v 218.340792 -2.760596 50.809261
v 219.986246 -3.834900 72.420032
v 219.026729 -4.924642 94.138776
v 215.549185 -6.019388 115.763570
v 209.455020 -7.150757 137.919100
v -177.362839 -5.840681 81.911572
v -176.523916 -4.622516 57.615308
v -173.075195 -3.406442 33.561984
v -166.877163 -2.207936 10.071839
v -157.899016 -1.044316 -12.506399
v -146.238420 0.067339 -33.838741
v -131.804972 1.101576 -53.409190
v -115.294350 2.057721 -71.257894
v -97.028750 2.930811 -87.310409
v -77.202659 3.711561 -101.396048
v -55.931415 4.384086 -113.206044
v -33.263659 4.913530 -122.047082
v -9.698564 5.305505 -128.069860
v 14.418586 5.556087 -131.222510
v 38.745361 5.667696 -131.579822
v 62.981434 5.648120 -129.320685
v 86.794041 5.487733 -124.278240
v 109.914310 5.198281 -116.708099
v 132.002776 4.774527 -106.531702
v 152.710226 4.216637 -93.779250
v 171.724221 3.531106 -78.604742
v 188.522840 2.716076 -61.011214
v 203.260972 1.805751 -41.670782
v 215.923607 0.816709 -20.916092
v 226.376447 -0.240510 1.031726
v 234.335099 -1.358648 24.005585
v 239.128069 -2.531846 47.836588
v 240.982955 -3.736070 72.061652
v 239.911954 -4.953792 96.331162
v 236.048094 -6.168304 120.321261
v 229.622789 -7.365539 143.768455
v -198.358728 -5.901029 81.500440
v -197.451853 -4.616241 55.877086
v -193.668320 -3.280184 29.450139
v -186.818117 -1.955751 3.491964
v -176.862383 -0.666657 -21.520170
v -163.942349 0.563365 -45.122572
v -148.047505 1.703915 -66.706457
v -129.969075 2.751532 -86.263596
v -110.065430 3.702923 -103.755738
v -88.343465 4.557771 -119.177115
v -64.886946 5.298304 -132.178727
v -39.804666 5.885006 -141.978752
v -13.698081 6.319727 -148.660519
v 12.953367 6.596691 -152.145470
v 39.680293 6.719042 -152.532640
v 66.137268 6.697132 -150.055686
v 92.134796 6.522569 -144.561372
v 117.537353 6.204834 -136.249748
v 141.946189 5.736519 -125.003385
v 164.884226 5.118006 -110.866709
v 185.918490 4.358598 -94.059126
v 204.449374 3.460872 -74.678358
v 220.600582 2.464033 -53.498909
v 234.398905 1.386296 -30.882984
v 245.840221 0.228047 -6.838594
v 254.595153 -1.004846 18.491506
v 259.915346 -2.303095 44.863916
v 261.979664 -3.637240 71.703272
v 260.797178 -4.982942 98.523547
v 256.547003 -6.317220 124.878953
v 249.790558 -7.580320 149.617810
v -219.354616 -5.961376 81.089307
v -218.379790 -4.609965 54.138864
v -214.261445 -3.153925 25.338294
v -206.759071 -1.703566 -3.087911
v -195.825751 -0.288999 -30.533940
v -181.646279 1.059391 -56.406403
v -164.290038 2.306254 -80.003724
v -144.643800 3.445343 -101.269297
v -123.102110 4.475034 -120.201066
v -99.484272 5.403982 -136.958182
v -73.842476 6.212522 -151.151409
v -46.345673 6.856482 -161.910422
v -17.697598 7.333949 -169.251178
v 11.488148 7.637296 -173.068431
v 40.615225 7.770389 -173.485457
v 69.293102 7.746145 -170.790688
v 97.475551 7.557406 -164.844504
v 125.160397 7.211388 -155.791398
v 151.889602 6.698510 -143.475069
v 177.058225 6.019374 -127.954169
v 200.112758 5.186090 -109.513511
v 220.375907 4.205668 -88.345502
v 237.940192 3.122314 -65.327037
v 252.874202 1.955883 -40.849877
v 265.303996 0.696604 -14.708914
v 274.855206 -0.651044 12.977428
v 280.702623 -2.074345 41.891243
v 282.976373 -3.538410 71.344892
v 281.682402 -5.012093 100.715933
v 277.045912 -6.466136 129.436644
v 269.958327 -7.795101 155.467164
# 155 vertices

vn -0.003849 0.998745 0.049942
vn -0.003849 0.998745 0.049942
vn -0.003849 0.998745 0.049942
vn -0.003849 0.998745 0.049942
vn -0.003849 0.998745 0.049942
vn -0.003849 0.998745 0.049942
vn -0.003849 0.998745 0.049942
vn -0.003849 0.998745 0.049942
vn -0.003849 0.998745 0.049942
vn -0.003849 0.998745 0.049942
vn -0.003849 0.998745 0.049942
vn -0.003849 0.998745 0.049942
vn -0.003849 0.998745 0.049942
vn -0.003849 0.998745 0.049942
vn -0.003849 0.998745 0.049942
vn -0.003849 0.998745 0.049942
vn -0.003849 0.998745 0.049942
vn -0.003849 0.998745 0.049942
vn -0.003849 0.998745 0.049942
vn -0.003849 0.998745 0.049942
vn -0.003849 0.998745 0.049942
vn -0.003849 0.998745 0.049942
vn -0.003849 0.998745 0.049942
vn -0.003849 0.998745 0.049942
vn -0.003849 0.998745 0.049942
vn -0.003849 0.998745 0.049942
vn -0.003849 0.998745 0.049942
vn -0.003849 0.998745 0.049942
vn -0.003849 0.998745 0.049942
vn -0.003849 0.998745 0.049942
vn -0.003849 0.998745 0.049942
vn -0.003849 0.998745 0.049942
vn -0.003849 0.998745 0.049942
vn -0.003849 0.998745 0.049942
vn -0.003849 0.998745 0.049942
vn -0.003849 0.998745 0.049942
vn -0.003849 0.998745 0.049942
vn -0.003849 0.998745 0.049942
vn -0.003849 0.998745 0.049942
vn -0.003849 0.998745 0.049942
vn -0.003849 0.998745 0.049942
vn -0.003849 0.998745 0.049942
vn -0.003849 0.998745 0.049942
vn -0.003849 0.998745 0.049942
vn -0.003849 0.998745 0.049942
vn -0.003849 0.998745 0.049942
vn -0.003849 0.998745 0.049942
vn -0.003849 0.998745 0.049942
vn -0.003849 0.998745 0.049942
vn -0.003849 0.998745 0.049942
vn -0.003849 0.998745 0.049942
vn -0.003849 0.998745 0.049942
vn -0.003849 0.998745 0.049942
vn -0.003849 0.998745 0.049942
vn -0.003849 0.998745 0.049942
vn -0.003849 0.998745 0.049942
vn -0.003849 0.998745 0.049942
vn -0.003849 0.998745 0.049942
vn -0.003849 0.998745 0.049942
vn -0.003849 0.998745 0.049942
vn -0.003849 0.998745 0.049942
vn -0.003849 0.998745 0.049942
vn -0.003849 0.998745 0.049942
vn -0.003849 0.998745 0.049942
vn -0.003849 0.998745 0.049942
vn -0.003849 0.998745 0.049942
vn -0.003849 0.998745 0.049942
vn -0.003849 0.998745 0.049942
vn -0.003849 0.998745 0.049942
vn -0.003849 0.998745 0.049942
vn -0.003849 0.998745 0.049942
vn -0.003849 0.998745 0.049942
vn -0.003849 0.998745 0.049942
vn -0.003849 0.998745 0.049942
vn -0.003849 0.998745 0.049942
vn -0.003849 0.998745 0.049942
vn -0.003849 0.998745 0.049942
vn -0.003849 0.998745 0.049942
vn -0.003849 0.998745 0.049942
vn -0.003849 0.998745 0.049942
vn -0.003849 0.998745 0.049942
vn -0.003849 0.998745 0.049942
vn -0.003849 0.998745 0.049942
vn -0.003849 0.998745 0.049942
vn -0.003849 0.998745 0.049942
vn -0.003849 0.998745 0.049942
vn -0.003849 0.998745 0.049942
vn -0.003849 0.998745 0.049942
vn -0.003849 0.998745 0.049942
vn -0.003849 0.998745 0.049942
vn -0.003849 0.998745 0.049942
vn -0.003849 0.998745 0.049942
vn -0.003849 0.998745 0.049942
vn -0.003849 0.998745 0.049942
vn -0.003849 0.998745 0.049942
vn -0.003849 0.998745 0.049942
vn -0.003849 0.998745 0.049942
vn -0.003849 0.998745 0.049942
vn -0.003849 0.998745 0.049942
vn -0.003849 0.998745 0.049942
vn -0.003849 0.998745 0.049942
vn -0.003849 0.998745 0.049942
vn -0.003849 0.998745 0.049942
vn -0.003849 0.998745 0.049942
vn -0.003849 0.998745 0.049942
vn -0.003849 0.998745 0.049942
vn -0.003849 0.998745 0.049942
vn -0.003849 0.998745 0.049942
vn -0.003849 0.998745 0.049942
vn -0.003849 0.998745 0.049942
vn -0.003849 0.998745 0.049942
vn -0.003849 0.998745 0.049942
# 112 normals

vt 0.000000 0.000000 0.000000
vt 0.000000 0.250000 0.000000
vt 0.033333 0.250000 0.000000
vt 0.033333 0.000000 0.000000
vt 0.066667 0.250000 0.000000
vt 0.066667 0.000000 0.000000
vt 0.100000 0.250000 0.000000
vt 0.100000 0.000000 0.000000
vt 0.133333 0.250000 0.000000
vt 0.133333 0.000000 0.000000
vt 0.166667 0.250000 0.000000
vt 0.166667 0.000000 0.000000
vt 0.200000 0.250000 0.000000
vt 0.200000 0.000000 0.000000
vt 0.233333 0.250000 0.000000
vt 0.233333 0.000000 0.000000
vt 0.266667 0.250000 0.000000
vt 0.266667 0.000000 0.000000
vt 0.300000 0.250000 0.000000
vt 0.300000 0.000000 0.000000
vt 0.333333 0.250000 0.000000
vt 0.333333 0.000000 0.000000
vt 0.366667 0.250000 0.000000
vt 0.366667 0.000000 0.000000
vt 0.400000 0.250000 0.000000
vt 0.400000 0.000000 0.000000
vt 0.433333 0.250000 0.000000
vt 0.433333 0.000000 0.000000
vt 0.466667 0.250000 0.000000
vt 0.466667 0.000000 0.000000
vt 0.500000 0.250000 0.000000
vt 0.500000 0.000000 0.000000
vt 0.533333 0.250000 0.000000
vt 0.533333 0.000000 0.000000
vt 0.566667 0.250000 0.000000
vt 0.566667 0.000000 0.000000
vt 0.600000 0.250000 0.000000
vt 0.600000 0.000000 0.000000
vt 0.633333 0.250000 0.000000
vt 0.633333 0.000000 0.000000
vt 0.666667 0.250000 0.000000
vt 0.666667 0.000000 0.000000
vt 0.700000 0.250000 0.000000
vt 0.700000 0.000000 0.000000
vt 0.733333 0.250000 0.000000
vt 0.733333 0.000000 0.000000
vt 0.766667 0.250000 0.000000
vt 0.766667 0.000000 0.000000
vt 0.800000 0.250000 0.000000
vt 0.800000 0.000000 0.000000
vt 0.833333 0.250000 0.000000
vt 0.833333 0.000000 0.000000
vt 0.866667 0.250000 0.000000
vt 0.866667 0.000000 0.000000
vt 0.900000 0.250000 0.000000
vt 0.900000 0.000000 0.000000
vt 0.933333 0.250000 0.000000
vt 0.933333 0.000000 0.000000
vt 0.966667 0.250000 0.000000
vt 0.966667 0.000000 0.000000
vt 1.000000 0.250000 0.000000
vt 1.000000 0.000000 0.000000
vt 0.000000 0.500000 0.000000
vt 0.033333 0.500000 0.000000
vt 0.066667 0.500000 0.000000
vt 0.100000 0.500000 0.000000
vt 0.133333 0.500000 0.000000
vt 0.166667 0.500000 0.000000
vt 0.200000 0.500000 0.000000
vt 0.233333 0.500000 0.000000
vt 0.266667 0.500000 0.000000
vt 0.300000 0.500000 0.000000
vt 0.333333 0.500000 0.000000
vt 0.366667 0.500000 0.000000
vt 0.400000 0.500000 0.000000
vt 0.433333 0.500000 0.000000
vt 0.466667 0.500000 0.000000
vt 0.500000 0.500000 0.000000
vt 0.533333 0.500000 0.000000
vt 0.566667 0.500000 0.000000
vt 0.600000 0.500000 0.000000
vt 0.633333 0.500000 0.000000
vt 0.666667 0.500000 0.000000
vt 0.700000 0.500000 0.000000
vt 0.733333 0.500000 0.000000
vt 0.766667 0.500000 0.000000
vt 0.800000 0.500000 0.000000
vt 0.833333 0.500000 0.000000
vt 0.866667 0.500000 0.000000
vt 0.900000 0.500000 0.000000
vt 0.933333 0.500000 0.000000
vt 0.966667 0.500000 0.000000
vt 1.000000 0.500000 0.000000
vt 0.000000 0.750000 0.000000
vt 0.033333 0.750000 0.000000
vt 0.066667 0.750000 0.000000
vt 0.100000 0.750000 0.000000
vt 0.133333 0.750000 0.000000
vt 0.166667 0.750000 0.000000
vt 0.200000 0.750000 0.000000
vt 0.233333 0.750000 0.000000
vt 0.266667 0.750000 0.000000
vt 0.300000 0.750000 0.000000
vt 0.333333 0.750000 0.000000
vt 0.366667 0.750000 0.000000
vt 0.400000 0.750000 0.000000
vt 0.433333 0.750000 0.000000
vt 0.466667 0.750000 0.000000
vt 0.500000 0.750000 0.000000
vt 0.533333 0.750000 0.000000
vt 0.566667 0.750000 0.000000
vt 0.600000 0.750000 0.000000
vt 0.633333 0.750000 0.000000
vt 0.666667 0.750000 0.000000
vt 0.700000 0.750000 0.000000
vt 0.733333 0.750000 0.000000
vt 0.766667 0.750000 0.000000
vt 0.800000 0.750000 0.000000
vt 0.833333 0.750000 0.000000
vt 0.866667 0.750000 0.000000
vt 0.900000 0.750000 0.000000
vt 0.933333 0.750000 0.000000
vt 0.966667 0.750000 0.000000
vt 1.000000 0.750000 0.000000
vt 0.000000 1.000000 0.000000
vt 0.033333 1.000000 0.000000
vt 0.066667 1.000000 0.000000
vt 0.100000 1.000000 0.000000
vt 0.133333 1.000000 0.000000
vt 0.166667 1.000000 0.000000
vt 0.200000 1.000000 0.000000
vt 0.233333 1.000000 0.000000
vt 0.266667 1.000000 0.000000
vt 0.300000 1.000000 0.000000
vt 0.333333 1.000000 0.000000
vt 0.366667 1.000000 0.000000
vt 0.400000 1.000000 0.000000
vt 0.433333 1.000000 0.000000
vt 0.466667 1.000000 0.000000
vt 0.500000 1.000000 0.000000
vt 0.533333 1.000000 0.000000
vt 0.566667 1.000000 0.000000
vt 0.600000 1.000000 0.000000
vt 0.633333 1.000000 0.000000
vt 0.666667 1.000000 0.000000
vt 0.700000 1.000000 0.000000
vt 0.733333 1.000000 0.000000
vt 0.766667 1.000000 0.000000
vt 0.800000 1.000000 0.000000
vt 0.833333 1.000000 0.000000
vt 0.866667 1.000000 0.000000
vt 0.900000 1.000000 0.000000
vt 0.933333 1.000000 0.000000
vt 0.966667 1.000000 0.000000
vt 1.000000 1.000000 0.000000
# 155 texture coordinates

o ??
usemtl default
f 2/4/4 33/3/3 32/2/2 1/1/1
f 3/6/6 34/5/5 33/3/3 2/4/4
f 4/8/8 35/7/7 34/5/5 3/6/6
f 5/10/9 36/9/1 35/7/7 4/8/8
f 6/12/11 37/11/10 36/9/1 5/10/9
f 7/14/12 38/13/7 37/11/10 6/12/11
f 8/16/13 39/15/1 38/13/7 7/14/12
f 9/18/15 40/17/14 39/15/1 8/16/13
f 10/20/17 41/19/16 40/17/14 9/18/15
f 11/22/19 42/21/18 41/19/16 10/20/17
f 12/24/20 43/23/9 42/21/18 11/22/19
f 13/26/21 44/25/13 43/23/9 12/24/20
f 14/28/23 45/27/22 44/25/13 13/26/21
f 15/30/25 46/29/24 45/27/22 14/28/23
f 16/32/27 47/31/26 46/29/24 15/30/25
f 17/34/28 48/33/12 47/31/26 16/32/27
f 18/36/30 49/35/29 48/33/12 17/34/28
f 19/38/7 50/37/31 49/35/29 18/36/30
f 20/40/32 51/39/18 50/37/31 19/38/7
f 21/42/10 52/41/33 51/39/18 20/40/32
f 22/44/35 53/43/34 52/41/33 21/42/10
f 23/46/37 54/45/36 53/43/34 22/44/35
f 24/48/1 55/47/38 54/45/36 23/46/37
f 25/50/30 56/49/39 55/47/38 24/48/1
f 26/52/29 57/51/9 56/49/39 25/50/30
f 27/54/40 58/53/9 57/51/9 26/52/29
f 28/56/42 59/55/41 58/53/9 27/54/40
f 29/58/44 60/57/43 59/55/41 28/56/42
f 30/60/46 61/59/45 60/57/43 29/58/44
f 31/62/48 62/61/47 61/59/45 30/60/46
f 33/3/3 64/64/50 63/63/49 32/2/2
f 34/5/5 65/65/22 64/64/50 33/3/3
f 35/7/7 66/66/51 65/65/22 34/5/5
f 36/9/1 67/67/52 66/66/51 35/7/7
f 37/11/10 68/68/8 67/67/52 36/9/1
f 38/13/7 69/69/53 68/68/8 37/11/10
f 39/15/1 70/70/54 69/69/53 38/13/7
f 40/17/14 71/71/55 70/70/54 39/15/1
f 41/19/16 72/72/9 71/71/55 40/17/14
f 42/21/18 73/73/56 72/72/9 41/19/16
f 43/23/9 74/74/57 73/73/56 42/21/18
f 44/25/13 75/75/58 74/74/57 43/23/9
f 45/27/22 76/76/59 75/75/58 44/25/13
f 46/29/24 77/77/60 76/76/59 45/27/22
f 47/31/26 78/78/61 77/77/60 46/29/24
f 48/33/12 79/79/62 78/78/61 47/31/26
f 49/35/29 80/80/63 79/79/62 48/33/12
f 50/37/31 81/81/64 80/80/63 49/35/29
f 51/39/18 82/82/65 81/81/64 50/37/31
f 52/41/33 83/83/66 82/82/65 51/39/18
f 53/43/34 84/84/67 83/83/66 52/41/33
f 54/45/36 85/85/36 84/84/67 53/43/34
f 55/47/38 86/86/58 85/85/36 54/45/36
f 56/49/39 87/87/36 86/86/58 55/47/38
f 57/51/9 88/88/13 87/87/36 56/49/39
f 58/53/9 89/89/24 88/88/13 57/51/9
f 59/55/41 90/90/68 89/89/24 58/53/9
f 60/57/43 91/91/69 90/90/68 59/55/41
f 61/59/45 92/92/70 91/91/69 60/57/43
f 62/61/47 93/93/71 92/92/70 61/59/45
f 64/64/50 95/95/73 94/94/72 63/63/49
f 65/65/22 96/96/67 95/95/73 64/64/50
f 66/66/51 97/97/37 96/96/67 65/65/22
f 67/67/52 98/98/74 97/97/37 66/66/51
f 68/68/8 99/99/58 98/98/74 67/67/52
f 69/69/53 100/100/75 99/99/58 68/68/8
f 70/70/54 101/101/76 100/100/75 69/69/53
f 71/71/55 102/102/77 101/101/76 70/70/54
f 72/72/9 103/103/9 102/102/77 71/71/55
f 73/73/56 104/104/78 103/103/9 72/72/9
f 74/74/57 105/105/79 104/104/78 73/73/56
f 75/75/58 106/106/80 105/105/79 74/74/57
f 76/76/59 107/107/67 106/106/80 75/75/58
f 77/77/60 108/108/81 107/107/67 76/76/59
f 78/78/61 109/109/82 108/108/81 77/77/60
f 79/79/62 110/110/5 109/109/82 78/78/61
f 80/80/63 111/111/54 110/110/5 79/79/62
f 81/81/64 112/112/22 111/111/54 80/80/63
f 82/82/65 113/113/83 112/112/22 81/81/64
f 83/83/66 114/114/84 113/113/83 82/82/65
f 84/84/67 115/115/32 114/114/84 83/83/66
f 85/85/36 116/116/85 115/115/32 84/84/67
f 86/86/58 117/117/86 116/116/85 85/85/36
f 87/87/36 118/118/55 117/117/86 86/86/58
f 88/88/13 119/119/16 118/118/55 87/87/36
f 89/89/24 120/120/74 119/119/16 88/88/13
f 90/90/68 121/121/87 120/120/74 89/89/24
f 91/91/69 122/122/51 121/121/87 90/90/68
f 92/92/70 123/123/20 122/122/51 91/91/69
f 93/93/71 124/124/88 123/123/20 92/92/70
f 95/95/73 126/126/90 125/125/89 94/94/72
f 96/96/67 127/127/41 126/126/90 95/95/73
f 97/97/37 128/128/37 127/127/41 96/96/67
f 98/98/74 129/129/91 128/128/37 97/97/37
f 99/99/58 130/130/68 129/129/91 98/98/74
f 100/100/75 131/131/92 130/130/68 99/99/58
f 101/101/76 132/132/93 131/131/92 100/100/75
f 102/102/77 133/133/94 132/132/93 101/101/76
f 103/103/9 134/134/38 133/133/94 102/102/77
f 104/104/78 135/135/95 134/134/38 103/103/9
f 105/105/79 136/136/96 135/135/95 104/104/78
f 106/106/80 137/137/97 136/136/96 105/105/79
f 107/107/67 138/138/91 137/137/97 106/106/80
f 108/108/81 139/139/98 138/138/91 107/107/67
f 109/109/82 140/140/99 139/139/98 108/108/81
f 110/110/5 141/141/100 140/140/99 109/109/82
f 111/111/54 142/142/101 141/141/100 110/110/5
f 112/112/22 143/143/102 142/142/101 111/111/54
f 113/113/83 144/144/103 143/143/102 112/112/22
f 114/114/84 145/145/104 144/144/103 113/113/83
f 115/115/32 146/146/105 145/145/104 114/114/84
f 116/116/85 147/147/106 146/146/105 115/115/32
f 117/117/86 148/148/29 147/147/106 116/116/85
f 118/118/55 149/149/107 148/148/29 117/117/86
f 119/119/16 150/150/107 149/149/107 118/118/55
f 120/120/74 151/151/108 150/150/107 119/119/16
f 121/121/87 152/152/109 151/151/108 120/120/74
f 122/122/51 153/153/110 152/152/109 121/121/87
f 123/123/20 154/154/111 153/153/110 122/122/51
f 124/124/88 155/155/112 154/154/111 123/123/20

v 29.985725 0.000000 206.837754
v -139.172459 0.000000 155.923143
v -208.902390 -0.000000 -6.386824
v -129.387277 -0.000000 -164.133886
v 42.565313 -0.000000 -204.619633
# 5 vertices

o ??_1
l 156 157 158 159 160 
